<svg xmlns="http://www.w3.org/2000/svg" width="58" height="58" viewBox="0 0 58 58">
    <defs>
        <clipPath id="t77cy23ica">
            <path data-name="Rectangle 116199" style="fill:none" d="M0 0h50v13.333H0z"/>
        </clipPath>
    </defs>
    <path data-name="Rectangle 117845" style="fill:none" d="M0 0h58v58H0z"/>
    <g data-name="Group 335237" style="clip-path:url(#t77cy23ica)" transform="translate(4 22)">
        <path data-name="Path 350906" d="m890.122 5.221.779-2.027h-13.389l.725-1.888c.073 0 .138-.008.2-.008h14.543a1.02 1.02 0 0 1 .939.4.528.528 0 0 1 .047.481c-.129.349-.262.7-.4 1.045-.371.971-.746 1.94-1.111 2.912a1.973 1.973 0 0 1-1.8.989c-3.9-.011-7.792-.005-11.689-.005h-.285l-1.49 3.874h-2.684l2.217-5.774z" transform="translate(-856.949 -1.278)" style="fill:#6d6e72"/>
        <path data-name="Path 350907" d="m6.1 1.247-3 7.792h10.71l3-7.776c.163-.031 2.478-.035 2.684 0-.058.153-.114.305-.173.458l-1.825 4.733c-.488 1.267-.979 2.533-1.461 3.8a1.269 1.269 0 0 1-1.282.705H1.2a3.792 3.792 0 0 1-.419-.02c-.47-.053-.765-.309-.776-.65a1.093 1.093 0 0 1 .1-.426Q1.13 7.178 2.165 4.5l1.2-3.119c.054-.141.056-.142.254-.142h2.27c.059 0 .118 0 .212.009" transform="translate(-.001 -1.22)" style="fill:#6d6e72"/>
        <path data-name="Path 350908" d="M1771.544 9.681 1775.261 0h2.648c0 .131-3.451 9.179-3.692 9.681z" transform="translate(-1735.959)" style="fill:#6d6e72"/>
        <path data-name="Path 350909" d="m2141.07 8.119-7.136 4.846 3.759-9.666 3.377 4.819" transform="translate(-2091.07 -3.252)" style="fill:#27803b"/>
        <path data-name="Path 350910" d="m2022.774 8.262-7.135 4.846 3.759-9.666 3.376 4.819" transform="translate(-1975.15 -3.393)" style="fill:#e9661c"/>
        <path data-name="Path 350911" d="M7.793 801.662h.229l-.184.959a1.669 1.669 0 0 0-.037.272.277.277 0 0 0 .122.242.6.6 0 0 0 .345.085.9.9 0 0 0 .277-.039.589.589 0 0 0 .207-.112.416.416 0 0 0 .122-.17 2.458 2.458 0 0 0 .109-.425l.149-.812h.229l-.159.846-.038.207a1.331 1.331 0 0 1-.079.247.659.659 0 0 1-.119.181.641.641 0 0 1-.167.129.874.874 0 0 1-.227.079 1.408 1.408 0 0 1-.3.029.923.923 0 0 1-.522-.125.385.385 0 0 1-.184-.333.919.919 0 0 1 .01-.13l.037-.2z" transform="translate(-7.416 -790.047)" style="fill:#6d6e72"/>
        <path data-name="Path 350912" d="M115.291 801.662h.227l-.314 1.676h-.051l-1.3-1.293-.244 1.293h-.231l.314-1.676h.051l1.306 1.294z" transform="translate(-111.099 -790.047)" style="fill:#6d6e72"/>
        <path data-name="Path 350913" d="M235.949 801.662h.234l-.314 1.676h-.234z" transform="translate(-230.902 -790.047)" style="fill:#6d6e72"/>
        <path data-name="Path 350914" d="m278.2 801.662-.028.164h-.89l-.1.548h.891l-.028.161h-.892l-.151.8h-.229l.314-1.676z" transform="translate(-271.207 -790.047)" style="fill:#6d6e72"/>
        <path data-name="Path 350915" d="M358.46 801.662h.234l-.314 1.676h-.234z" transform="translate(-350.952 -790.047)" style="fill:#6d6e72"/>
        <path data-name="Path 350916" d="m400.869 801.662-.033.163H399.8l-.1.549h1.041l-.03.161h-1.041l-.12.642h1.042l-.027.161h-1.279l.314-1.676z" transform="translate(-391.257 -790.047)" style="fill:#6d6e72"/>
        <path data-name="Path 350917" d="M489.776 801.662h.5a2.27 2.27 0 0 1 .724.089.906.906 0 0 1 .406.277.654.654 0 0 1 .154.428.741.741 0 0 1-.174.474.981.981 0 0 1-.43.313 2.3 2.3 0 0 1-.76.1h-.731zm.2.162-.253 1.351h.2q.47 0 .623-.018a1.176 1.176 0 0 0 .393-.108.745.745 0 0 0 .273-.24.59.59 0 0 0 .114-.349.518.518 0 0 0-.128-.348.77.77 0 0 0-.351-.223 2.261 2.261 0 0 0-.643-.064z" transform="translate(-479.63 -790.047)" style="fill:#6d6e72"/>
        <path data-name="Path 350918" d="M663.7 801.662h.632a1.693 1.693 0 0 1 .45.042.468.468 0 0 1 .218.135.32.32 0 0 1 .082.219.384.384 0 0 1-.129.288.679.679 0 0 1-.326.167 2.591 2.591 0 0 1-.505.033h-.351l-.15.792h-.234zm.207.162-.109.557h.323a2.088 2.088 0 0 0 .451-.032.419.419 0 0 0 .2-.112.248.248 0 0 0 .076-.176.192.192 0 0 0-.052-.136.284.284 0 0 0-.143-.079 1.625 1.625 0 0 0-.335-.023z" transform="translate(-650.062 -790.047)" style="fill:#6d6e72"/>
        <path data-name="Path 350919" d="m756.673 801.662.779 1.675h-.239l-.254-.548h-.984l-.435.548h-.259l1.338-1.675zm-.073.351-.494.618h.781z" transform="translate(-740.11 -790.047)" style="fill:#6d6e72"/>
        <path data-name="Path 350920" d="M887.229 801.662h.244l.5.76.838-.76h.282l-1.029.931-.141.744h-.227l.141-.752z" transform="translate(-869.407 -790.047)" style="fill:#6d6e72"/>
        <path data-name="Path 350921" d="M982.373 801.662v1.676h-.218v-1.154l-1.009 1.154h-.058l-.6-1.2-.478 1.2h-.235l.671-1.676h.039l.677 1.362 1.175-1.362z" transform="translate(-960.093 -790.047)" style="fill:#6d6e72"/>
        <path data-name="Path 350922" d="m1137.349 801.662-.033.163h-1.041l-.1.549h1.041l-.03.161h-1.041l-.12.642h1.042l-.027.161h-1.279l.314-1.676z" transform="translate(-1112.944 -790.047)" style="fill:#6d6e72"/>
        <path data-name="Path 350923" d="M1228.172 801.662h.226l-.314 1.676h-.051l-1.3-1.293-.244 1.293h-.231l.314-1.676h.05l1.306 1.294z" transform="translate(-1201.625 -790.047)" style="fill:#6d6e72"/>
        <path data-name="Path 350924" d="M1349.726 801.662h1.388l-.03.158h-.585l-.284 1.517h-.234l.284-1.517h-.569z" transform="translate(-1322.585 -790.047)" style="fill:#6d6e72"/>
        <path data-name="Path 350925" d="m1420.646 799.106-.219.04a.349.349 0 0 0-.145-.167.413.413 0 0 0-.219-.061.333.333 0 0 0-.21.063.2.2 0 0 0-.081.169.306.306 0 0 0 .087.195 1.392 1.392 0 0 0 .259.2 1.1 1.1 0 0 1 .3.259.409.409 0 0 1 .084.235.366.366 0 0 1-.092.235.62.62 0 0 1-.249.178.853.853 0 0 1-.332.065.712.712 0 0 1-.386-.1.569.569 0 0 1-.234-.3l.215-.052a.408.408 0 0 0 .164.223.511.511 0 0 0 .553-.017.268.268 0 0 0 .122-.222.313.313 0 0 0-.069-.189 1.086 1.086 0 0 0-.269-.222 1.482 1.482 0 0 1-.28-.216.4.4 0 0 1-.106-.264.338.338 0 0 1 .155-.284.645.645 0 0 1 .386-.112.672.672 0 0 1 .346.089.523.523 0 0 1 .223.263" transform="translate(-1390.699 -787.181)" style="fill:#6d6e72"/>
        <path data-name="Path 350926" d="M1554.216 801.662h.235l-.314 1.676h-.234z" transform="translate(-1522.688 -790.047)" style="fill:#6d6e72"/>
        <path data-name="Path 350927" d="M1597.1 801.662h.227l-.314 1.676h-.051l-1.3-1.293-.244 1.293h-.231l.314-1.676h.051l1.306 1.294z" transform="translate(-1563.147 -790.047)" style="fill:#6d6e72"/>
        <path data-name="Path 350928" d="M1718.658 801.662h1.388l-.03.158h-.585l-.284 1.517h-.234l.284-1.517h-.568z" transform="translate(-1684.106 -790.047)" style="fill:#6d6e72"/>
        <path data-name="Path 350929" d="m1792.324 801.662-.033.163h-1.041l-.1.549h1.041l-.03.161h-1.041l-.121.642h1.042l-.027.161h-1.279l.314-1.676z" transform="translate(-1754.762 -790.047)" style="fill:#6d6e72"/>
        <path data-name="Path 350930" d="M1883.746 801.662h.583a1.632 1.632 0 0 1 .446.043.477.477 0 0 1 .218.137.318.318 0 0 1 .084.218.381.381 0 0 1-.1.252.6.6 0 0 1-.269.175 1.413 1.413 0 0 1-.449.059l.7.793h-.264l-.7-.793h-.184l-.149.793h-.234zm.2.162-.1.557h.267a2.71 2.71 0 0 0 .388-.017.51.51 0 0 0 .247-.107.249.249 0 0 0 .094-.2.2.2 0 0 0-.131-.19.97.97 0 0 0-.363-.047z" transform="translate(-1845.6 -790.047)" style="fill:#6d6e72"/>
        <path data-name="Path 350931" d="m1984.247 801.662-.028.164h-.89l-.1.548h.89l-.028.161h-.893l-.151.8h-.229l.314-1.676z" transform="translate(-1942.986 -790.047)" style="fill:#6d6e72"/>
        <path data-name="Path 350932" d="m2060.223 801.662.778 1.675h-.238l-.254-.548h-.985l-.435.548h-.259l1.338-1.675zm-.073.351-.494.618h.781z" transform="translate(-2017.476 -790.047)" style="fill:#6d6e72"/>
        <path data-name="Path 350933" d="m2192.906 799.027-.14.14a1.465 1.465 0 0 0-.842-.251 1.52 1.52 0 0 0-.575.108 1.022 1.022 0 0 0-.418.292.608.608 0 0 0-.151.394.523.523 0 0 0 .116.334.758.758 0 0 0 .335.229 1.42 1.42 0 0 0 .5.083 1.693 1.693 0 0 0 .8-.2l.13.133a2.4 2.4 0 0 1-.475.176 2.084 2.084 0 0 1-.459.045 1.564 1.564 0 0 1-.785-.174.7.7 0 0 1-.4-.623.816.816 0 0 1 .4-.682 1.712 1.712 0 0 1 1-.28 1.867 1.867 0 0 1 .5.062 1.75 1.75 0 0 1 .461.211" transform="translate(-2146.543 -787.181)" style="fill:#6d6e72"/>
        <path data-name="Path 350934" d="m2324.536 801.662-.034.163h-1.04l-.1.549h1.041l-.03.161h-1.041l-.121.642h1.042l-.027.161h-1.278l.313-1.676z" transform="translate(-2276.284 -790.047)" style="fill:#6d6e72"/>
    </g>
</svg>
