<svg xmlns="http://www.w3.org/2000/svg" width="44" height="44" viewBox="0 0 44 44">
    <g data-name="Trust Stamp">
        <path data-name="Rectangle 116738" style="fill:none" d="M0 0h44v44H0z"/>
        <path data-name="Rectangle 7274" d="M0 0h44v13.852H0z" style="fill:none" transform="translate(0 15)"/>
        <g data-name="Group 8792">
            <path data-name="Path 4185" d="M3.406 0h28.218a1.512 1.512 0 0 1 1.511 1.512v7.326a1.512 1.512 0 0 1-1.512 1.512H2.783z" transform="translate(10.694 17.016)" style="fill:#face32"/>
            <path data-name="Path 4184" d="M.176-15.4h4.588v1.051H3.086v4.439h-1.24v-4.439H.176zm6.243 2.031a1.536 1.536 0 0 1 .572-.6 1.674 1.674 0 0 1 .824-.212v1.137a1.654 1.654 0 0 0-.188-.008 1.245 1.245 0 0 0-.882.3 1.044 1.044 0 0 0-.325.8v2.031H5.209v-4.221h1.207zm6.061-.761v4.22h-1.2v-.745a1.484 1.484 0 0 1-1.411.792A1.453 1.453 0 0 1 8.76-10.3a1.648 1.648 0 0 1-.412-1.18v-2.65h1.208v2.306a.885.885 0 0 0 .212.627.754.754 0 0 0 .581.227.867.867 0 0 0 .682-.306 1.152 1.152 0 0 0 .249-.768v-2.086zm3.827 1.239a3.517 3.517 0 0 0-.682-.3 2.042 2.042 0 0 0-.6-.106.692.692 0 0 0-.353.078.256.256 0 0 0-.133.235.291.291 0 0 0 .181.267 3.454 3.454 0 0 0 .588.212 6.2 6.2 0 0 1 .741.261 1.374 1.374 0 0 1 .5.386 1.015 1.015 0 0 1 .212.67 1.136 1.136 0 0 1-.481.978 2.055 2.055 0 0 1-1.235.349 3.251 3.251 0 0 1-1-.153 2.567 2.567 0 0 1-.83-.435l.392-.816a2.474 2.474 0 0 0 .718.388 2.29 2.29 0 0 0 .747.137.785.785 0 0 0 .388-.083.267.267 0 0 0 .145-.249.312.312 0 0 0-.184-.282 3.082 3.082 0 0 0-.592-.22 5.99 5.99 0 0 1-.718-.249 1.279 1.279 0 0 1-.489-.38 1.028 1.028 0 0 1-.2-.664 1.136 1.136 0 0 1 .471-.971 1.963 1.963 0 0 1 1.192-.345 3.167 3.167 0 0 1 .863.122 2.88 2.88 0 0 1 .784.349zm3.866 2.745a1.973 1.973 0 0 1-.521.216 2.28 2.28 0 0 1-.577.074 1.362 1.362 0 0 1-.955-.337 1.242 1.242 0 0 1-.369-.965v-1.951h-.587v-.83h.588V-15.1h1.2v1.162h1.145v.839h-1.148v1.739q0 .486.384.486a1.358 1.358 0 0 0 .588-.157z" transform="translate(17.947 34.564)" style="fill:#4d4a4a"/>
            <path data-name="Path 4186" d="M14.375 2.494v1.932H11.1V1.515L9.167 1l-1.929.515v2.911H3.959V2.489l-1.322.424.56 10.3 5.97 1.9 5.957-1.91.6-10.281z" transform="translate(-2.637 14)" style="fill-rule:evenodd;fill:#face32"/>
            <path data-name="Path 3853" d="M3.628-7.6H2.213v-5.5H.4v-1.178h5.041v1.178H3.628z" transform="translate(3.408 34.351)" style="fill:#fff;stroke:transparent"/>
        </g>
    </g>
</svg>
