<svg xmlns="http://www.w3.org/2000/svg" width="44" height="44" viewBox="0 0 44 44">
    <g data-name="Smart Lead System">
        <path data-name="Rectangle 116742" style="fill:none" d="M0 0h44v44H0z"/>
        <path data-name="Path 344244" d="M17.61 192.539v-1.612l-1-.212-.395-.954.556-.855-1.139-1.141-.858.556-.951-.395-.214-1H12l-.214 1-.951.395-.858-.556-1.139 1.141.556.855-.394.954-1 .212v1.612l1 .212.395.954-.556.855 1.138 1.14.858-.554.951.393.214 1h1.61l.214-1 .951-.393.858.554 1.139-1.139-.556-.855.395-.954zm-4.8.731a1.537 1.537 0 1 1 1.537-1.537 1.539 1.539 0 0 1-1.547 1.537z" transform="translate(-2 -175.294)" style="fill:#8c93ba"/>
        <g data-name="Group 333330">
            <path data-name="Path 344246" d="M182.3 266.978V263c0-1.83-2.3-2.889-4.96-3.176v-1.053a4.244 4.244 0 0 0 1.744-2.391h1.068a.98.98 0 0 0 .107-1.954l.3-1.083c.483-1.717-.739-1.228-.372-1.989 1.252-2.6-1.588-2.546-4.4-2.5-2.458 0-5.212 1.278-4.795 3.7l.324 1.882a.98.98 0 0 0 .157 1.947h1.064a4.238 4.238 0 0 0 1.75 2.4v1.045c-2.661.288-4.96 1.347-4.96 3.176v3.975z" transform="translate(-153.821 -234.508)" style="fill:#ffdbd3"/>
            <path data-name="Path 344247" d="M182.3 404.768v-3.975c0-1.586-1.728-2.593-3.922-3.02l-.936 3.111-1.626-1.594-1.624 1.594-.936-3.111c-2.194.427-3.922 1.434-3.922 3.02v3.975z" transform="translate(-153.819 -372.298)" style="fill:#0097f0"/>
            <path data-name="Path 344248" d="m254.527 305.272-.14-.011a.783.783 0 0 1 .1.4l-.006.672c0 2.12-1.033 4.782-3.244 5.031a3.266 3.266 0 0 0 .353.019c2.446 0 3.585-2.663 3.585-4.763l.006-.634a.708.708 0 0 0-.654-.714z" transform="translate(-229.597 -286.707)" style="fill:#ffd1c7"/>
            <path data-name="Path 344249" d="M249.837 478.982a.5.5 0 1 0-.5-.5.5.5 0 0 0 .5.5z" transform="translate(-227.838 -446.513)" style="fill-rule:evenodd;fill:#0283d0"/>
            <path data-name="Path 344250" d="M249.837 456.19a.5.5 0 1 0-.5-.5.5.5 0 0 0 .5.5z" transform="translate(-227.838 -425.426)" style="fill-rule:evenodd;fill:#0283d0"/>
            <g data-name="Group 333327">
                <g data-name="Group 333326">
                    <path data-name="Path 344251" d="m222.7 398.951 1.624-1.594-1.522-1.673c-.354.038-.7.091-1.038.156z" transform="translate(-202.323 -370.366)" style="fill:#0083d0"/>
                    <path data-name="Path 344252" d="M258.548 395.84a12.16 12.16 0 0 0-1.038-.156l-1.524 1.673 1.626 1.594z" transform="translate(-233.987 -370.366)" style="fill:#0083d0"/>
                </g>
            </g>
            <path data-name="Path 344253" d="M237.163 382.024a2.956 2.956 0 0 1-1.52-.4v1.045l1.522 1.673 1.524-1.673v-1.053a2.949 2.949 0 0 1-1.526.408z" transform="translate(-215.166 -357.348)" style="fill:#fcc9c0"/>
            <path data-name="Path 344254" d="M191.395 254.436a.976.976 0 0 1 .157-.014h.747c0-2.142 4.169-1.522 6.52-1.349a.708.708 0 0 1 .658.715l-.006.634h.753a.99.99 0 0 1 .107.006l.3-1.083c.483-1.717-.739-1.228-.372-1.989 1.252-2.6-1.588-2.546-4.4-2.5-2.458 0-5.212 1.278-4.795 3.7z" transform="translate(-173.888 -234.509)" style="fill:#656d78"/>
            <g data-name="Group 333328">
                <path data-name="Path 344255" d="M186.646 323.433h-.746a.98.98 0 1 0 0 1.961h1.064a6.443 6.443 0 0 1-.318-1.961z" transform="translate(-168.236 -303.519)" style="fill:#fcc9c0"/>
                <path data-name="Path 344256" d="M300.743 323.433h-.753a6.416 6.416 0 0 1-.315 1.961h1.068a.98.98 0 1 0 0-1.961z" transform="translate(-274.408 -303.519)" style="fill:#fcc9c0"/>
            </g>
            <path data-name="Path 344257" d="M270.519 251.358c1.126-2.339-1.059-2.53-3.553-2.513.058.022 2.287.876 2.11 4.23a.708.708 0 0 1 .658.715l-.006.634h.753a.99.99 0 0 1 .107.006l.3-1.083c.486-1.717-.736-1.228-.369-1.989z" transform="translate(-244.146 -234.51)" style="fill:#5d6875"/>
            <g data-name="Group 333329">
                <path data-name="Path 344258" d="M301.784 453.973v-2.534a.483.483 0 0 0-.966 0v2.534z" transform="translate(-275.466 -421.503)" style="fill:#0083d0"/>
                <path data-name="Path 344259" d="M199.205 453.973v-2.534a.483.483 0 0 0-.966 0v2.534z" transform="translate(-180.56 -421.503)" style="fill:#0083d0"/>
            </g>
        </g>
        <path data-name="Path 344260" d="M380.342 196.563a4.8 4.8 0 1 0-4.8-4.8 4.814 4.814 0 0 0 4.8 4.8z" transform="translate(-347.147 -175.321)" style="fill:#f7c946"/>
        <path data-name="Path 344261" d="M393.295 208.469a3.756 3.756 0 1 1 3.758-3.757 3.762 3.762 0 0 1-3.758 3.757z" transform="translate(-360.099 -188.278)" style="fill:#fff5b5"/>
        <path data-name="Path 344263" d="M70.292 95.178a.479.479 0 0 0-.049.66.443.443 0 0 0 .638.051.48.48 0 0 0 .049-.66.443.443 0 0 0-.638-.051zm-16.977 0a.479.479 0 0 1 .049.66.443.443 0 0 1-.638.051.48.48 0 0 1-.049-.66.443.443 0 0 1 .637-.051zm-1.05-1.039a.479.479 0 0 1-.022.66.442.442 0 0 1-.64-.021.481.481 0 0 1 .022-.662.444.444 0 0 1 .639.024zm-.933-1.154a.477.477 0 0 1-.091.654.443.443 0 0 1-.633-.094.479.479 0 0 1 .091-.654.441.441 0 0 1 .632.095zm-.8-1.254a.476.476 0 0 1-.16.641.446.446 0 0 1-.62-.168.476.476 0 0 1 .162-.639.442.442 0 0 1 .615.167zm-.665-1.331a.474.474 0 0 1-.23.616.445.445 0 0 1-.6-.237.472.472 0 0 1 .23-.616.446.446 0 0 1 .6.237zm21.475 3.74a.479.479 0 0 0 .022.66.442.442 0 0 0 .64-.021.481.481 0 0 0-.022-.662.444.444 0 0 0-.64.023zm.933-1.154a.477.477 0 0 0 .091.654.443.443 0 0 0 .634-.094.479.479 0 0 0-.091-.654.441.441 0 0 0-.634.094zm.8-1.254a.477.477 0 0 0 .162.641.444.444 0 0 0 .618-.168.476.476 0 0 0-.162-.639.442.442 0 0 0-.616.166zm.662-1.337a.474.474 0 0 0 .23.616.448.448 0 0 0 .6-.237.475.475 0 0 0-.23-.616.447.447 0 0 0-.598.242zm-4.6 5.695a.442.442 0 0 1 .627.123.477.477 0 0 1-.12.65.442.442 0 0 1-.627-.124.475.475 0 0 1 .121-.648zm-14.67 0a.442.442 0 0 0-.627.123.479.479 0 0 0 .12.65.442.442 0 0 0 .627-.124.475.475 0 0 0-.119-.648z" transform="translate(-39.803 -68.512)" style="fill:#cfd2d3;fill-rule:evenodd"/>
        <g data-name="Group 333332">
            <path data-name="Path 344268" d="M40.265 221.79a2.585 2.585 0 1 1 2.585-2.585 2.587 2.587 0 0 1-2.585 2.585zm0-4.122a1.537 1.537 0 1 0 1.537 1.537 1.539 1.539 0 0 0-1.537-1.537z" transform="translate(-29.461 -202.775)" style="fill:#72769b"/>
        </g>
    </g>
</svg>
