<svg xmlns="http://www.w3.org/2000/svg" width="44" height="44" viewBox="0 0 44 44">
    <g data-name="Competitor Analysis">
        <path data-name="Rectangle 116743" style="fill:none" d="M0 0h44v44H0z"/>
        <g data-name="Group 336282" transform="translate(-2 -19.328)">
            <ellipse data-name="Ellipse 16168" cx="3.645" cy="3.189" rx="3.645" ry="3.189" transform="translate(20.578 33.403)" style="fill:#ffd199"/>
            <path data-name="Path 344319" d="M20.037 57.273v-8.031l-3.143 1.17a1.385 1.385 0 0 1-1.385-.256l-3.953-3.462a1.329 1.329 0 0 1 .138-2.077 1.315 1.315 0 0 1 1.468 0l3.7 2.451 2.61-1.274a2.769 2.769 0 0 1 1.212-.291h9.789a2.769 2.769 0 0 1 1.218.284l2.61 1.274L38 44.611a1.315 1.315 0 0 1 1.468 0 1.329 1.329 0 0 1 .138 2.077l-3.953 3.462a1.385 1.385 0 0 1-1.385.256l-3.15-1.163v8.031z" transform="translate(-1.576 -4.734)" style="fill:#b2d3ff"/>
            <path data-name="Path 344320" d="M31.231 46 29.5 51.538l1.731 2.769 1.731-2.769z" transform="translate(-7.23 -5.23)" style="fill:#f2f2f2"/>
            <rect data-name="Rectangle 115999" width="6.378" height="7.289" rx="1" transform="translate(6.912 29.759)" style="fill:#67cc6d"/>
            <rect data-name="Rectangle 116000" width="7.289" height="7.289" rx="1" transform="translate(34.246 29.759)" style="fill:#ff7375"/>
            <path data-name="Path 344321" d="M34.873 46.46a.692.692 0 0 1-.692.125l-3.136-1.17a.692.692 0 0 0-.942.63v8.031h1.385v-7.034l2.208.8a2.077 2.077 0 0 0 2.077-.381L39.726 44a2.017 2.017 0 0 0-2.444-3.2l-3.358 2.264-2.25-1.1a3.51 3.51 0 0 0-1.523-.353h-2.6a4.154 4.154 0 1 0-4.583 0h-2.6a3.51 3.51 0 0 0-1.523.353l-2.25 1.1-3.365-2.236a2.016 2.016 0 0 0-2.444 3.2l3.953 3.462a2.077 2.077 0 0 0 2.077.381l2.215-.831v7.034h1.385v-8.029a.692.692 0 0 0-.935-.651l-3.136 1.17a.692.692 0 0 1-.692-.125L11.688 43a.609.609 0 0 1-.215-.519.63.63 0 0 1 .983-.485l3.7 2.451a.692.692 0 0 0 .692.048l2.61-1.274a2.077 2.077 0 0 1 .904-.221h3.953l-1.447 4.638a.692.692 0 0 0 .069.575l1.731 2.769a.692.692 0 0 0 1.177 0l1.731-2.769a.692.692 0 0 0 .069-.575L26.2 43h3.953a2.077 2.077 0 0 1 .914.215l2.61 1.274a.692.692 0 0 0 .692-.048l3.7-2.451a.63.63 0 0 1 .983.485.609.609 0 0 1-.215.519zm-8.64 1.288-.976 1.558-.976-1.558.976-3.122zm-.976-6.826a2.769 2.769 0 1 1 2.769-2.769 2.769 2.769 0 0 1-2.769 2.769z" transform="translate(-1.258 -1.537)" style="fill:none"/>
            <path data-name="Path 344322" d="M7.385 37.308h5.538a1.385 1.385 0 0 0 1.385-1.385v-5.538A1.385 1.385 0 0 0 12.923 29H7.385A1.385 1.385 0 0 0 6 30.385v5.538a1.385 1.385 0 0 0 1.385 1.385zm0-6.923h2.077v1.385h1.385v-1.385h2.077v5.538H7.385z" style="fill:none"/>
            <path data-name="Path 344323" d="M47.385 37.308h5.538a1.385 1.385 0 0 0 1.385-1.385v-5.538A1.385 1.385 0 0 0 52.923 29h-5.538A1.385 1.385 0 0 0 46 30.385v5.538a1.385 1.385 0 0 0 1.385 1.385zm0-6.923h2.077v1.385h1.385v-1.385h2.077v5.538h-5.539z" transform="translate(-12.309)" style="fill:none"/>
        </g>
    </g>
</svg>
