<svg xmlns="http://www.w3.org/2000/svg" width="44" height="44" viewBox="0 0 44 44">
    <g data-name="Search Visibility">
        <path data-name="Rectangle 116735" style="fill:none" d="M0 0h44v44H0z"/>
        <g data-name="Group 333478">
            <g data-name="ranking (2)" transform="translate(2.001 13.871)">
                <rect data-name="Rectangle 116010" width="40" height="16.594" rx="2" style="fill:#f5f5f5"/>
                <rect data-name="Rectangle 116011" width="10.371" height="10.371" rx="3" transform="translate(2.31 3.111)" style="fill:#ffda2e"/>
                <g data-name="Group 333478" transform="translate(14.755 3.111)">
                    <rect data-name="Rectangle 116012" width="22.817" height="2.074" rx="1.037" style="fill:#fe9121"/>
                    <rect data-name="Rectangle 116013" width="22.817" height="2.074" rx="1.037" transform="translate(0 4.149)" style="fill:#fe9121"/>
                    <rect data-name="Rectangle 116014" width="22.817" height="2.074" rx="1.037" transform="translate(0 8.297)" style="fill:#fe9121"/>
                </g>
            </g>
            <path data-name="Path 344325" d="M7.739 2.543 5.3.108a.37.37 0 0 0-.522 0l-.217.221a.366.366 0 0 0-.108.261.374.374 0 0 0 .108.264l1.42 1.423H.364A.36.36 0 0 0 0 2.64v.313a.374.374 0 0 0 .364.379H6L4.561 4.763a.365.365 0 0 0 0 .518l.221.22a.37.37 0 0 0 .522 0l2.435-2.434a.372.372 0 0 0 0-.524z" transform="rotate(-90 16.542 9.55)" style="fill:#0297f0"/>
        </g>
    </g>
</svg>
